<svg width="2500" height="424" viewBox="0 0 2500 424" fill="none" xmlns="http://www.w3.org/2000/svg">
<path fill-rule="evenodd" clip-rule="evenodd" d="M116.574 158.996L182.683 203.109L262.088 150.176L229.034 128.049L272.038 99.47L364.619 161.234L212.502 262.645L245.566 284.762L434.215 158.996L275.395 53.1191L116.574 158.996ZM434.215 264.873L367.975 220.76L288.56 273.704L321.625 295.7L278.621 324.399L186.04 262.635L338.157 161.224L305.092 139.117L116.574 264.873L275.395 370.76L434.215 264.873ZM434.215 97.232L401.03 119.349L367.965 97.232L434.215 53.1191V97.232ZM116.574 326.637L149.629 304.52L182.683 326.637L116.574 370.76V326.637ZM584.336 317.696C605.082 317.696 656.665 315.327 656.665 261.768C656.665 232.686 647.592 212.434 612.794 208.089C639.387 202.867 652.683 185.216 652.683 160.861C652.683 115.75 621.988 106.053 584.578 106.053H497.713V317.696H584.336ZM2143.34 317.696C2172.42 317.696 2201.75 313.845 2201.75 268.976C2201.75 217.162 2126.69 222.373 2126.69 189.44C2126.69 177.514 2134.01 171.053 2146.32 171.053H2186.58V144.329H2130.03C2083.69 144.329 2072.25 165.327 2072.25 192.413C2072.25 243.986 2155.39 242.746 2155.39 271.829C2155.39 283.512 2149.05 291.466 2136.25 291.466H2076.73L2032.61 144.45H1979.79L1930.96 302.151L1900.26 234.299C1922.75 230.196 1931.71 215.901 1931.82 189.803C1931.82 160.226 1914.18 144.44 1886.96 144.44H1804.32V317.686H1849.44V171.043H1864.47C1877.15 171.043 1888.21 180.357 1888.21 197.383C1888.21 211.799 1881 223.734 1869.44 222.988L1856.77 223.119L1897.89 317.686H1970.22L1981.04 279.278H2027.76L2038.45 317.686L2143.34 317.696ZM2020.93 252.827H1987.5L2003.41 181.859L2020.93 252.827ZM1517.74 322.786C1585.22 322.786 1585.22 277.928 1585.22 231.95C1585.22 185.347 1585.22 140.972 1517.74 140.972C1450.26 140.972 1450.26 185.347 1450.26 231.95C1450.26 277.918 1450.26 322.786 1517.74 322.786ZM1517.74 296.446C1497.99 296.446 1495.37 277.061 1495.37 231.95C1495.37 186.839 1498 167.323 1517.75 167.323C1537.51 167.323 1539.99 186.829 1539.99 231.94C1539.99 277.051 1537.51 296.446 1517.74 296.446ZM1303.5 317.696H1369.37C1438.46 317.696 1433.86 256.547 1433.86 229.833C1433.86 175.77 1423.92 143.956 1370.98 143.956H1303.5V317.696ZM1347.49 170.922H1365.26C1389.5 170.922 1389.5 199.137 1389.5 231.073C1389.5 274.692 1385.26 291.355 1364.14 291.355H1347.49V170.922ZM1697.57 225.357H1708.51C1729.63 225.357 1736.34 236.92 1736.34 255.559C1736.34 285.256 1716.33 285.498 1707.39 285.498H1684.14V225.73L1697.57 225.357ZM1684.14 193.049V138.986H1710C1724.17 138.986 1734.1 150.297 1734.1 165.952C1734.1 186.466 1721.3 192.797 1712.23 192.797H1697.58L1684.14 193.049ZM1717.33 317.817C1738.09 317.817 1789.66 315.458 1789.66 261.768C1789.66 232.686 1780.59 212.555 1745.91 208.089C1772.51 202.867 1785.81 185.216 1785.81 160.861C1785.81 115.75 1754.98 106.053 1717.7 106.053H1630.71V317.817H1717.33ZM2383.56 317.686V291.476H2332.11V144.44H2288.12V317.676L2383.56 317.686ZM2262.27 144.45H2218.15V317.686H2262.27V144.45ZM1188.18 322.776C1255.66 322.776 1255.66 277.797 1255.66 231.567C1255.66 184.722 1255.66 140.236 1188.18 140.236C1120.82 140.236 1120.82 184.722 1120.82 231.567C1120.82 277.797 1120.82 322.776 1188.18 322.776ZM1188.18 296.436C1168.42 296.436 1165.93 276.809 1165.93 231.567C1165.93 186.204 1168.42 166.698 1188.18 166.698C1207.94 166.698 1210.55 186.214 1210.55 231.567C1210.55 276.809 1207.95 296.436 1188.18 296.436ZM752.109 252.696H718.55L734.457 181.859L752.109 252.696ZM701.282 317.686L712.219 279.289H758.943L769.629 317.696H815.737L763.671 144.45H710.979L657.764 317.686H701.282ZM1047.26 322.786C1085.54 322.786 1107.9 307.625 1107.9 260.397H1064.29C1063.78 274.319 1063.54 296.436 1047.26 296.436C1028.74 296.436 1026.01 285.135 1026.01 231.567C1026.01 176.022 1030.24 166.698 1046.39 166.698C1057.95 166.698 1063.17 175.397 1063.17 199.006H1106.53C1108.15 160.982 1087.03 140.236 1045.27 140.236C983.137 140.236 981.393 179.752 981.393 231.567C981.393 283.643 979.78 322.786 1047.26 322.786ZM863.459 317.686V202.242L911.554 317.686H963.621V144.45H926.09V256.426L879.236 144.45H825.909V317.686H863.459ZM561.594 225.105H568.429C594.276 225.105 602.481 236.536 602.481 255.307C602.481 284.883 577.996 285.135 567.058 285.135H551.03V225.357L561.594 225.105ZM551.03 192.676V138.613H570.163C587.562 138.613 599.74 150.045 599.74 165.579C599.74 186.083 584.084 192.545 572.905 192.545H554.881L551.03 192.676Z" fill="#4A4A4A"/>
</svg>
